<svg xmlns="http://www.w3.org/2000/svg" viewBox="0 0 600 400" preserveAspectRatio="xMidYMid slice" role="img" aria-label="Hydration tip">
  <defs>
    <linearGradient id="hydTipBg" x1="0" y1="0" x2="1" y2="1">
      <stop offset="0" stop-color="#e1ecf1"/>
      <stop offset="1" stop-color="#a9c5d2"/>
    </linearGradient>
  </defs>
  <rect width="600" height="400" fill="url(#hydTipBg)"/>
  <!-- glass of water -->
  <g transform="translate(220 100)">
    <path d="M0 0 h160 l-14 220 a8 8 0 0 1 -8 7 h-116 a8 8 0 0 1 -8 -7 z" fill="#ffffff" opacity="0.85"/>
    <path d="M14 40 h132 l-12 180 h-108 z" fill="#7ea8b9" opacity="0.55"/>
    <ellipse cx="80" cy="50" rx="60" ry="8" fill="#ffffff" opacity="0.9"/>
  </g>
  <!-- droplets -->
  <path d="M120 110 c10 14 18 26 18 38 a18 18 0 0 1 -36 0 c0 -12 8 -24 18 -38 z" fill="#ffffff" opacity="0.7"/>
  <path d="M480 130 c8 12 16 22 16 32 a16 16 0 0 1 -32 0 c0 -10 8 -20 16 -32 z" fill="#ffffff" opacity="0.6"/>
  <path d="M460 320 c10 14 18 26 18 38 a18 18 0 0 1 -36 0 c0 -12 8 -24 18 -38 z" fill="#ffffff" opacity="0.5"/>
</svg>
